<?xml version="1.0" encoding="UTF-8" standalone="no"?>
<!-- Created with Inkscape (http://www.inkscape.org/) -->

<svg xmlns:dc="http://purl.org/dc/elements/1.1/" xmlns:cc="http://creativecommons.org/ns#" xmlns:rdf="http://www.w3.org/1999/02/22-rdf-syntax-ns#" xmlns:svg="http://www.w3.org/2000/svg" xmlns="http://www.w3.org/2000/svg" xmlns:sodipodi="http://sodipodi.sourceforge.net/DTD/sodipodi-0.dtd" xmlns:inkscape="http://www.inkscape.org/namespaces/inkscape" width="198.4375mm" height="198.4375mm" viewBox="0 0 198.4375 198.4375" version="1.1" id="svg8" sodipodi:docname="logo.svg" inkscape:export-filename="/home/kuba/projects/jcubic/send/favicon.png" inkscape:export-xdpi="97.260002" inkscape:export-ydpi="97.260002" inkscape:version="0.92.4 (unknown)">
  <defs id="defs2" />
  <sodipodi:namedview id="base" pagecolor="#ffffff" bordercolor="#666666" borderopacity="1.0" inkscape:pageopacity="0.0" inkscape:pageshadow="2" inkscape:zoom="0.49497475" inkscape:cx="88.511391" inkscape:cy="392.49522" inkscape:document-units="mm" inkscape:current-layer="layer1" showgrid="false" inkscape:window-width="1920" inkscape:window-height="983" inkscape:window-x="0" inkscape:window-y="37" inkscape:window-maximized="1" fit-margin-top="0" fit-margin-left="0" fit-margin-right="0" fit-margin-bottom="0" />
  <metadata id="metadata5">
    <rdf:RDF>
      <cc:Work rdf:about="">
        <dc:format>image/svg+xml</dc:format>
        <dc:type rdf:resource="http://purl.org/dc/dcmitype/StillImage" />
        <dc:title></dc:title>
      </cc:Work>
    </rdf:RDF>
  </metadata>
  <g inkscape:label="Layer 1" inkscape:groupmode="layer" id="layer1" transform="translate(-2.1381562,-17.312561)">
    <path id="path843" style="fill:#333333;stroke-width:0.50264859" d="m 83.811328,90.008735 c -1.600332,0 -2.874522,1.289898 -2.874522,2.89023 v 47.264685 c 0,1.60033 1.27419,2.89024 2.874522,2.89024 h 35.091162 c 1.60033,0 2.87452,-1.28991 2.87452,-2.89024 v -35.51528 h -10.57133 c -2.16446,0 -4.0526,-1.57886 -4.0526,-3.6756 V 90.008735 Z m 25.352342,0 v 10.964035 c 0,0.8616 0.82031,1.66501 2.04201,1.66501 h 10.57133 z M 87.235622,109.89477 H 104.577 c 0.49213,0 0.87964,0.40323 0.87964,0.89534 v 1.31945 c 0,0.49214 -0.38751,0.89535 -0.87964,0.89535 H 87.235622 c -0.492129,0 -0.879636,-0.40321 -0.879636,-0.89535 v -1.31945 c 0,-0.49211 0.387507,-0.89534 0.879636,-0.89534 z m 0,7.24129 h 28.226868 c 0.49212,0 0.89534,0.40321 0.89534,0.89533 v 1.33516 c 0,0.49214 -0.40322,0.87965 -0.89534,0.87965 H 87.235622 c -0.492129,0 -0.879636,-0.38751 -0.879636,-0.87965 v -1.33516 c 0,-0.49212 0.387507,-0.89533 0.879636,-0.89533 z m 0,7.25699 h 28.226868 c 0.49212,0 0.89534,0.3875 0.89534,0.87963 v 1.33516 c 0,0.49212 -0.40322,0.89535 -0.89534,0.89535 H 87.235622 c -0.492129,0 -0.879636,-0.40323 -0.879636,-0.89535 v -1.33516 c 0,-0.49213 0.387507,-0.87963 0.879636,-0.87963 z m 0,7.24127 h 28.226868 c 0.49212,0 0.89534,0.38752 0.89534,0.87964 v 1.33516 c 0,0.49214 -0.40322,0.89534 -0.89534,0.89534 H 87.235622 c -0.492129,0 -0.879636,-0.4032 -0.879636,-0.89534 v -1.33516 c 0,-0.49212 0.387507,-0.87964 0.879636,-0.87964 z" inkscape:connector-curvature="0" />
    <g id="g886" transform="translate(127.06718,12.103434)">
      <g transform="matrix(1.8041886,0,0,1.8041886,56.276414,4.8004246)" id="g870">
        <path style="opacity:1;vector-effect:none;fill:none;fill-opacity:1;stroke:#cc5200;stroke-width:11.0853157;stroke-linecap:round;stroke-linejoin:miter;stroke-miterlimit:4;stroke-dasharray:none;stroke-dashoffset:0;stroke-opacity:1" id="path858" sodipodi:type="arc" sodipodi:cx="-13.982539" sodipodi:cy="65.427475" sodipodi:rx="35.529762" sodipodi:ry="35.529762" sodipodi:start="2.6179939" sodipodi:end="5.2494608" d="M -44.752216,83.192355 A 35.529762,35.529762 0 0 1 -38.936062,40.135466 35.529762,35.529762 0 0 1 4.1952783,34.899931" sodipodi:open="true" transform="rotate(30)" />
        <path transform="matrix(1.0754917,-0.86421552,0.5762759,0.71715898,-190.68271,100.44337)" inkscape:transform-center-y="-1.5143835" inkscape:transform-center-x="4.177604" d="m 130.96875,75.511674 -10.80708,-18.71841 21.61416,0 z" inkscape:randomized="0" inkscape:rounded="0" inkscape:flatsided="true" sodipodi:arg2="2.6179939" sodipodi:arg1="1.5707963" sodipodi:r2="6.23947" sodipodi:r1="12.47894" sodipodi:cy="63.032734" sodipodi:cx="130.96875" sodipodi:sides="3" id="path862" style="opacity:1;vector-effect:none;fill:#cc5200;fill-opacity:1;stroke:none;stroke-width:0.26458332;stroke-linecap:butt;stroke-linejoin:miter;stroke-miterlimit:4;stroke-dasharray:none;stroke-dashoffset:0;stroke-opacity:1" sodipodi:type="star" />
      </g>
      <g id="use872" transform="matrix(-1.8041886,0,0,-1.8041886,-107.69696,204.05533)">
        <path transform="rotate(30)" sodipodi:open="true" d="M -44.752216,83.192355 A 35.529762,35.529762 0 0 1 -38.936062,40.135466 35.529762,35.529762 0 0 1 4.1952783,34.899931" sodipodi:end="5.2494608" sodipodi:start="2.6179939" sodipodi:ry="35.529762" sodipodi:rx="35.529762" sodipodi:cy="65.427475" sodipodi:cx="-13.982539" sodipodi:type="arc" id="path874" style="opacity:1;vector-effect:none;fill:none;fill-opacity:1;stroke:#0c2b57;stroke-width:11.0853157;stroke-linecap:round;stroke-linejoin:miter;stroke-miterlimit:4;stroke-dasharray:none;stroke-dashoffset:0;stroke-opacity:1" />
        <path sodipodi:type="star" style="opacity:1;vector-effect:none;fill:#0c2b57;fill-opacity:1;stroke:none;stroke-width:0.26458332;stroke-linecap:butt;stroke-linejoin:miter;stroke-miterlimit:4;stroke-dasharray:none;stroke-dashoffset:0;stroke-opacity:1" id="path876" sodipodi:sides="3" sodipodi:cx="130.96875" sodipodi:cy="63.032734" sodipodi:r1="12.47894" sodipodi:r2="6.23947" sodipodi:arg1="1.5707963" sodipodi:arg2="2.6179939" inkscape:flatsided="true" inkscape:rounded="0" inkscape:randomized="0" d="m 130.96875,75.511674 -10.80708,-18.71841 21.61416,0 z" inkscape:transform-center-x="4.177604" inkscape:transform-center-y="-1.5143835" transform="matrix(1.0754917,-0.86421552,0.5762759,0.71715898,-190.68271,100.44337)" />
      </g>
    </g>
  </g>
</svg>
